<?xml version="1.0" encoding="UTF-8"?>
<svg width="1200pt" height="1200pt" version="1.1" viewBox="0 0 1200 1200" xmlns="http://www.w3.org/2000/svg">
 <path d="m907.2 670.8-54-32.402v-18l-2.3984 16.801-38.402-24 37.203 33.602-12 72-69.602-80.402 87.602 144-2.4023-132 106.8 94.801-63.602-148.8z"/>
 <path d="m1052.4 838.8 70.801 14.398-1.1992-13.199c0-4.8008-8.3984-115.2-87.602-208.8l36 12-8.3984-21.602c-1.1992-3.6016-40.801-98.398-64.801-134.4-16.801-25.199-31.199-44.398-42-57.602l30 8.3984-18-25.199c-7.1992-9.5977-152.4-207.6-366-207.6-213.6 0-358.8 198-364.8 206.4l-18 25.199 30-8.3984c-10.801 13.199-25.199 32.398-42 57.602-24 36-63.602 129.6-64.801 134.4l-8.3984 21.602 36-12c-79.199 94.801-87.602 204-87.602 208.8l-1.1992 14.398 70.801-14.398-16.801 21.602 146.4 9.6016-10.801 25.199 163.2-10.801-9.6016 36 81.602-37.199 156 25.199 37.199-25.199 79.199 36-9.6016-36 163.2 10.801-10.801-25.199 146.4-9.6016zm-160.8 12 15.602 27.602-165.6-18 20.398 36-62.398-36-37.199 36-158.4-34.801-52.801 27.602 13.199-28.801-165.6 18 15.602-27.602-151.2-1.1992 40.801-43.199-97.199 20.398c6-37.199 27.602-136.8 108-211.2l34.801-33.602-76.801 25.199c13.199-30 37.199-84 54-108 40.801-60 64.801-81.602 64.801-81.602l32.398-30-48.004 10.801c46.801-54 168-171.6 325.2-171.6s278.4 118.8 325.2 171.6l-45.602-13.199 32.398 30s24 22.801 64.801 81.602c16.801 24 40.801 78 54 108l-76.801-25.199 34.801 33.602c80.398 75.602 102 175.2 108 211.2l-97.199-20.398 33.602 43.199z"/>
 <path d="m349.2 458.4 3.6016-44.398-33.602 96 100.8-103.2z"/>
 <path d="m733.2 300 6 42-90-21.602 142.8 67.203z"/>
 <path d="m597.6 499.2 8.3984-13.199-9.6016 12-16.797-12 13.199 14.398-46.801 55.203-25.199-75.602 2.3984 140.4 72-117.6 69.602 80.398v-103.2l-21.602 51.602z"/>
 <path d="m369.6 633.6-36 150 141.6-132-105.6 70.797z"/>
</svg>
